<?xml version="1.0" encoding="utf-8"?>
<svg xmlns="http://www.w3.org/2000/svg" version="1.1" viewBox="-4.957182227111293 -4.983386116752813 19.528728908445167 9.966772233505626">
<style>.no_fill_black_stroke {fill:none; stroke:#000000; stroke-width:0.01;}</style>
<polygon class="no_fill_black_stroke" points="4.757182227111292464841985727472841233324384072575329613655632445734905349998583747136771156086968911,0.5000000000000000000000000000000000000000000000000000000000000000000000000000000000000000000000000000 4.549270536293533127740243443067716067107799311947605777248450471852522524334509370832142399364241337,1.478147600733805637928566747869599532459737808862677107885177663640596833120095121999758525454785637 4.142533893217732919986257452726218454184659660881432340954164119035484747809962965761340228843621744,2.391693058376406533430694319854916710400548268240151652946177451705711715222726393681542526348085632 3.554748640925259790817551498087145685587007223238286349881891638278206273647611008252836178980880408,3.200710052751353957532987737037735769260702858143033084013901763058341946632177618535146128442781200 2.811603815447865555802854449112888708397893349740259963841767967730435929226491882838672124732796599,3.869840659110212171359261067724516242860286077102828760831355115346308548342821515681301051802871268 1.945578411663426909039131278359952524926490722835069649813864478004469420772091864298099031354172311,4.369840659110212171359261067724516242860286077102828760831355115346308548342821515681301051802871268 0.9945218953682733369226919449805703815207920887093194273665588335743162506868983625793062203833609297,4.678857653485159595461554484907335301720440667005710191899079426698938779752272740534904653897566837 0,4.783386116752813066861388639709833420801096536480303305892354903411423430445452787363085052696171263 -0.9945218953682733369226919449805703815207920887093194273665588335743162506868983625793062203833609297,4.678857653485159595461554484907335301720440667005710191899079426698938779752272740534904653897566837 -1.945578411663426909039131278359952524926490722835069649813864478004469420772091864298099031354172311,4.369840659110212171359261067724516242860286077102828760831355115346308548342821515681301051802871268 -2.811603815447865555802854449112888708397893349740259963841767967730435929226491882838672124732796599,3.869840659110212171359261067724516242860286077102828760831355115346308548342821515681301051802871268 -3.554748640925259790817551498087145685587007223238286349881891638278206273647611008252836178980880408,3.200710052751353957532987737037735769260702858143033084013901763058341946632177618535146128442781200 -4.142533893217732919986257452726218454184659660881432340954164119035484747809962965761340228843621744,2.391693058376406533430694319854916710400548268240151652946177451705711715222726393681542526348085632 -4.549270536293533127740243443067716067107799311947605777248450471852522524334509370832142399364241337,1.478147600733805637928566747869599532459737808862677107885177663640596833120095121999758525454785637 -4.757182227111292464841985727472841233324384072575329613655632445734905349998583747136771156086968911,0.5000000000000000000000000000000000000000000000000000000000000000000000000000000000000000000000000000 -4.757182227111292464841985727472841233324384072575329613655632445734905349998583747136771156086968911,-0.5000000000000000000000000000000000000000000000000000000000000000000000000000000000000000000000000000 -4.549270536293533127740243443067716067107799311947605777248450471852522524334509370832142399364241337,-1.478147600733805637928566747869599532459737808862677107885177663640596833120095121999758525454785637 -4.142533893217732919986257452726218454184659660881432340954164119035484747809962965761340228843621744,-2.391693058376406533430694319854916710400548268240151652946177451705711715222726393681542526348085632 -3.554748640925259790817551498087145685587007223238286349881891638278206273647611008252836178980880408,-3.200710052751353957532987737037735769260702858143033084013901763058341946632177618535146128442781200 -2.811603815447865555802854449112888708397893349740259963841767967730435929226491882838672124732796599,-3.869840659110212171359261067724516242860286077102828760831355115346308548342821515681301051802871268 -1.945578411663426909039131278359952524926490722835069649813864478004469420772091864298099031354172311,-4.369840659110212171359261067724516242860286077102828760831355115346308548342821515681301051802871268 -0.9945218953682733369226919449805703815207920887093194273665588335743162506868983625793062203833609297,-4.678857653485159595461554484907335301720440667005710191899079426698938779752272740534904653897566837 0,-4.783386116752813066861388639709833420801096536480303305892354903411423430445452787363085052696171263 0.9945218953682733369226919449805703815207920887093194273665588335743162506868983625793062203833609297,-4.678857653485159595461554484907335301720440667005710191899079426698938779752272740534904653897566837 1.945578411663426909039131278359952524926490722835069649813864478004469420772091864298099031354172311,-4.369840659110212171359261067724516242860286077102828760831355115346308548342821515681301051802871268 2.811603815447865555802854449112888708397893349740259963841767967730435929226491882838672124732796599,-3.869840659110212171359261067724516242860286077102828760831355115346308548342821515681301051802871268 3.554748640925259790817551498087145685587007223238286349881891638278206273647611008252836178980880408,-3.200710052751353957532987737037735769260702858143033084013901763058341946632177618535146128442781200 4.142533893217732919986257452726218454184659660881432340954164119035484747809962965761340228843621744,-2.391693058376406533430694319854916710400548268240151652946177451705711715222726393681542526348085632 4.549270536293533127740243443067716067107799311947605777248450471852522524334509370832142399364241337,-1.478147600733805637928566747869599532459737808862677107885177663640596833120095121999758525454785637 4.757182227111292464841985727472841233324384072575329613655632445734905349998583747136771156086968911,-0.5000000000000000000000000000000000000000000000000000000000000000000000000000000000000000000000000000" />
<polygon class="no_fill_black_stroke" points="4.757182227111292464841985727472841233324384072575329613655632445734905349998583747136771156086968911,-0.5000000000000000000000000000000000000000000000000000000000000000000000000000000000000000000000000000 4.857182227111292470393100850598623935442542413029431176155632445734905349998583747136771156086968911,-0.5000000000000000000000000000000000000000000000000000000000000000000000000000000000000000000000000000 4.857182227111292470393100850598623935442542413029431176155632445734905349998583747136771156086968911,0.5000000000000000000000000000000000000000000000000000000000000000000000000000000000000000000000000000 4.757182227111292464841985727472841233324384072575329613655632445734905349998583747136771156086968911,0.5000000000000000000000000000000000000000000000000000000000000000000000000000000000000000000000000000" />
<polygon class="no_fill_black_stroke" points="4.857182227111292470393100850598623935442542413029431176155632445734905349998583747136771156086968911,-0.5000000000000000000000000000000000000000000000000000000000000000000000000000000000000000000000000000 5.065093917929051807494843135003749101659127173657155012562814419617288175662658123441399912809696484,-1.478147600733805637928566747869599532459737808862677107885177663640596833120095121999758525454785637 5.471830561004852015248829125345246714582266824723328448857100772434325952187204528512202083330316077,-2.391693058376406533430694319854916710400548268240151652946177451705711715222726393681542526348085632 6.059615813297325144417535079984319483179919262366474439929373253191604426349556486020706133193057413,-3.200710052751353957532987737037735769260702858143033084013901763058341946632177618535146128442781200 6.802760638774719379432232128958576460369033135864500825969496923739374770770675611434870187441141222,-3.869840659110212171359261067724516242860286077102828760831355115346308548342821515681301051802871268 7.668786042559158026195955299711512643840435762769691139997400413465341279225075629975443280819765510,-4.369840659110212171359261067724516242860286077102828760831355115346308548342821515681301051802871268 8.619842558854311598312394633090894787246134396895441362444706057895494449310269131694236091790576891,-4.678857653485159595461554484907335301720440667005710191899079426698938779752272740534904653897566837 9.614364454222584935235086578071465168766926485604760789811264891469810699997167494273542312173937821,-4.783386116752813066861388639709833420801096536480303305892354903411423430445452787363085052696171263 10.60888634959085827215777852305203555028771857431408021717782372504412695068406585685284853255729875,-4.678857653485159595461554484907335301720440667005710191899079426698938779752272740534904653897566837 11.55994286588601184427421785643141769369341720843983043962512936947428012076925935857164134352811013,-4.369840659110212171359261067724516242860286077102828760831355115346308548342821515681301051802871268 12.42596826967045049103794102718435387716481983534502075365303285920024662922365937711221443690673442,-3.869840659110212171359261067724516242860286077102828760831355115346308548342821515681301051802871268 13.16911309514784472605263807615861085435393370884304713969315652974801697364477850252637849115481823,-3.200710052751353957532987737037735769260702858143033084013901763058341946632177618535146128442781200 13.75689834744031785522134403079768362295158614648619313076542901050529544780713046003488254101755956,-2.391693058376406533430694319854916710400548268240151652946177451705711715222726393681542526348085632 14.16363499051611806297533002113918123587472579755236656705971536332233322433167686510568471153817916,-1.478147600733805637928566747869599532459737808862677107885177663640596833120095121999758525454785637 14.37154668133387740007707230554430640209131055818009040346689733720471604999575124141031346826090673,-0.5000000000000000000000000000000000000000000000000000000000000000000000000000000000000000000000000000 14.37154668133387740007707230554430640209131055818009040346689733720471604999575124141031346826090673,0.5000000000000000000000000000000000000000000000000000000000000000000000000000000000000000000000000000 14.16363499051611806297533002113918123587472579755236656705971536332233322433167686510568471153817916,1.478147600733805637928566747869599532459737808862677107885177663640596833120095121999758525454785637 13.75689834744031785522134403079768362295158614648619313076542901050529544780713046003488254101755956,2.391693058376406533430694319854916710400548268240151652946177451705711715222726393681542526348085632 13.16911309514784472605263807615861085435393370884304713969315652974801697364477850252637849115481823,3.200710052751353957532987737037735769260702858143033084013901763058341946632177618535146128442781200 12.42596826967045049103794102718435387716481983534502075365303285920024662922365937711221443690673442,3.869840659110212171359261067724516242860286077102828760831355115346308548342821515681301051802871268 11.55994286588601184427421785643141769369341720843983043962512936947428012076925935857164134352811013,4.369840659110212171359261067724516242860286077102828760831355115346308548342821515681301051802871268 10.60888634959085827215777852305203555028771857431408021717782372504412695068406585685284853255729875,4.678857653485159595461554484907335301720440667005710191899079426698938779752272740534904653897566837 9.614364454222584935235086578071465168766926485604760789811264891469810699997167494273542312173937821,4.783386116752813066861388639709833420801096536480303305892354903411423430445452787363085052696171263 8.619842558854311598312394633090894787246134396895441362444706057895494449310269131694236091790576891,4.678857653485159595461554484907335301720440667005710191899079426698938779752272740534904653897566837 7.668786042559158026195955299711512643840435762769691139997400413465341279225075629975443280819765510,4.369840659110212171359261067724516242860286077102828760831355115346308548342821515681301051802871268 6.802760638774719379432232128958576460369033135864500825969496923739374770770675611434870187441141222,3.869840659110212171359261067724516242860286077102828760831355115346308548342821515681301051802871268 6.059615813297325144417535079984319483179919262366474439929373253191604426349556486020706133193057413,3.200710052751353957532987737037735769260702858143033084013901763058341946632177618535146128442781200 5.471830561004852015248829125345246714582266824723328448857100772434325952187204528512202083330316077,2.391693058376406533430694319854916710400548268240151652946177451705711715222726393681542526348085632 5.065093917929051807494843135003749101659127173657155012562814419617288175662658123441399912809696484,1.478147600733805637928566747869599532459737808862677107885177663640596833120095121999758525454785637 4.857182227111292470393100850598623935442542413029431176155632445734905349998583747136771156086968911,0.5000000000000000000000000000000000000000000000000000000000000000000000000000000000000000000000000000" />
<polygon class="no_fill_black_stroke" points="8.619842558854311598312394633090894787246134396895441362444706057895494449310269131694236091790576891,-4.678857653485159595461554484907335301720440667005710191899079426698938779752272740534904653897566837 2.913503461083390165613758632814601926811942592140940027760872191314575428799108121381479225965708601,-2.824755687235475050847793981810420948559513127588421605492733558583157391295565391413283041329393425 2.882601761645895414549246476411446072461180897137145382503879948343585930835089551696966594100989726,-2.919861338864990413338862125701708547169807196884575684566314719008534825764478579494862277368682695 8.588940859416816847247882476687738932895372701891646717187713814924504951346250562009723459925858016,-4.773963305114674957952622628798622900330734736301864270972660587124316214221185928616483889936856107" />
</svg>
