<?xml version="1.0" encoding="utf-8"?>
<svg xmlns="http://www.w3.org/2000/svg" version="1.1" viewBox="-4.8245332901512965 -4.817751013682944 19.71680552374131 9.635502027365888">
<style>
    .no_fill_black_stroke { fill: none; stroke: #000000; stroke-width: 0.03; }
    .circle_style { fill: none; stroke: #FF0000; stroke-width: 0.03; }
</style>
<polygon class="no_fill_black_stroke" points="4.597424077863338857812963721319150034656815852171410763464856043454654168277430858879908941457921231,0.5000000000000000000000000000000000000000000000000000000000000000000000000000000000000000000000000000 4.382453637652314790631010244237074280859013294293999475740595116740047916524290267411546053118566260,1.476620555710086683208227962877863351798981639242686562821448624397114423708946857450361053872410555 3.962564536092050213657299349207917945156648478690394667417730590317004985266212030892163617362370485,2.384195975381043736828389252906381159149182682524029381646970494381295024699089535218796719018709720 3.357390320898285047733019216227809465892032093293391102224082309909956210053370080329710026033922224,3.180289041086687482826465499416249401331505619332987710235157781704277425711241096975877409972299625 2.595228265770648584477288802427702848895234171005958639402802457301270834189921237924692950685164840,3.827675325868515122008125633602395670088836012904716369557030262004982598378536387711714971944616314 1.711716221324625661649971908205838727005658259999487420686190308148460471842582050857777335326885127,4.296083766568305261224365307751853026370257847327729106649007432634267977971871626931238860306697613 0.7481662288054027016066357272033467760424109156045617447666040448750883740064921434813213397650631752,4.563612105097526082418991513035194366553987680838768804386020958297964177180740075855728202854205385 -0.2503671850457211629651547838750021808819063875190085782130597055812975685949739272999331945622072437,4.617751013682943608568899839009793059166567469284211935098450638230591744843535812189672045867348248 -1.237193707587247314733779134313895688865804317185592804998169482402579439031822099037653767610898925,4.455969017130178882024639774673371745322373658252717230727235635329162673653167205946613903478722969 -2.166170427404038756523408735399449950949958240698908177221983815205366913266981440811829999252270687,4.085830861790264525160659107058207288224390545698361393891712539623988866469796066642972412901189100 -2.993859425560929312659190358536953213880429260654021427172767015293661811441072684675969146185745332,3.524643796427882155890718178684598085248583629333970005572766505639479773227258355177163265123358593 -3.681558884414352605743067210912320278344040859818842883099398816292168639245116588666789224416059813,2.798648304504751297752383279756086176344240040441769237212738205458543574602851198236313136295424609 -4.197112741591374345452933707552033708874519059566489679827099939413384854167706332112854675756807404,1.941791128337162053229306727850711730316839954709751679693641520556122256474397648579898307367653232 -4.516414271727354318650167249831561035853203584887654528925685514517498577997935117775724738897915505,0.9941379571543596089553027158795515668545596184813939382645203028420288115234418884385425535976867939 -4.624533290151296081680975576815248041715902709457371468489393164081050312829380958792731034135976867,0 -4.516414271727354318650167249831561035853203584887654528925685514517498577997935117775724738897915505,-0.9941379571543596089553027158795515668545596184813939382645203028420288115234418884385425535976867939 -4.197112741591374345452933707552033708874519059566489679827099939413384854167706332112854675756807404,-1.941791128337162053229306727850711730316839954709751679693641520556122256474397648579898307367653232 -3.681558884414352605743067210912320278344040859818842883099398816292168639245116588666789224416059813,-2.798648304504751297752383279756086176344240040441769237212738205458543574602851198236313136295424609 -2.993859425560929312659190358536953213880429260654021427172767015293661811441072684675969146185745332,-3.524643796427882155890718178684598085248583629333970005572766505639479773227258355177163265123358593 -2.166170427404038756523408735399449950949958240698908177221983815205366913266981440811829999252270687,-4.085830861790264525160659107058207288224390545698361393891712539623988866469796066642972412901189100 -1.237193707587247314733779134313895688865804317185592804998169482402579439031822099037653767610898925,-4.455969017130178882024639774673371745322373658252717230727235635329162673653167205946613903478722969 -0.2503671850457211629651547838750021808819063875190085782130597055812975685949739272999331945622072437,-4.617751013682943608568899839009793059166567469284211935098450638230591744843535812189672045867348248 0.7481662288054027016066357272033467760424109156045617447666040448750883740064921434813213397650631752,-4.563612105097526082418991513035194366553987680838768804386020958297964177180740075855728202854205385 1.711716221324625661649971908205838727005658259999487420686190308148460471842582050857777335326885127,-4.296083766568305261224365307751853026370257847327729106649007432634267977971871626931238860306697613 2.595228265770648584477288802427702848895234171005958639402802457301270834189921237924692950685164840,-3.827675325868515122008125633602395670088836012904716369557030262004982598378536387711714971944616314 3.357390320898285047733019216227809465892032093293391102224082309909956210053370080329710026033922224,-3.180289041086687482826465499416249401331505619332987710235157781704277425711241096975877409972299625 3.962564536092050213657299349207917945156648478690394667417730590317004985266212030892163617362370485,-2.384195975381043736828389252906381159149182682524029381646970494381295024699089535218796719018709720 4.382453637652314790631010244237074280859013294293999475740595116740047916524290267411546053118566260,-1.476620555710086683208227962877863351798981639242686562821448624397114423708946857450361053872410555 4.597424077863338857812963721319150034656815852171410763464856043454654168277430858879908941457921231,-0.5000000000000000000000000000000000000000000000000000000000000000000000000000000000000000000000000000" />
<circle class="circle_style" cx="0" cy="0" r="4.597424077863338857812963721319150034656815852171410763464856043454654168277430858879908941457921231" />
<polygon class="no_fill_black_stroke" points="4.597424077863338857812963721319150034656815852171410763464856043454654168277430858879908941457921231,-0.5000000000000000000000000000000000000000000000000000000000000000000000000000000000000000000000000000 4.597424077863338857812963721319150034656815852171410763464856043454654168277430858879908941457921231,0.5000000000000000000000000000000000000000000000000000000000000000000000000000000000000000000000000000 5.497424077863338880017424213822280843129449213987817013464856043454654168277430858879908941457921231,0.5000000000000000000000000000000000000000000000000000000000000000000000000000000000000000000000000000 5.497424077863338880017424213822280843129449213987817013464856043454654168277430858879908941457921231,-0.5000000000000000000000000000000000000000000000000000000000000000000000000000000000000000000000000000" />
<circle class="circle_style" cx="10.09484815572667773783038793514143087778626506615922777692971208690930833655486171775981788291584246" cy="0" r="4.597424077863338857812963721319150034656815852171410763464856043454654168277430858879908941457921231" />
<circle class="circle_style" cx="6.434870727231510082038428656847477196315728143410070443900201680216825868879877948371986082706147638" cy="-2.782242508233865576813151575460620473282135895984017698965300209924496894988135254384648371241212701" r="0.01000000000000000020816681711721685132943093776702880859375000000000000000000000000000000000000000000" />
<polygon class="no_fill_black_stroke" points="6.737457834828392661410049854340336478211016698699382617326293121367049274283781326587912688546382647,-3.180289041086687452541631182743266161666525587408477836643818656203563573555357693128735677501002053 4.921935189247097185180322669383180786839285366963509576769744474465708841860361057292353053504972591,-0.7920098439697561981707535390473920313601874388617170105727079785291635021520230606642118399422659413 4.205451430112017791192242350457752819326727831335239334826982927098465835237014759842979262247618180,-1.336666637644144854477238646886085122969371434514695992232095541592712754035119786734142769112132388 6.020974075693313267421969535414908510698459163071112375383531573999806267660435029138538897289028236,-3.724945834761076108848116290581959253275709583061456818303206219267112825438454419198666606670868499" />
</svg>
