<?xml version="1.0" encoding="utf-8"?>
<svg xmlns="http://www.w3.org/2000/svg" version="1.1" viewBox="-5.957182227111293 -4.983386116752813 24.485993417356568 14.966772233505626">
<style>.no_fill_black_stroke {fill:none; stroke:#000000; stroke-width:0.01;}</style>
<polygon class="no_fill_black_stroke" points="-4.757182227111292464841985727472841233324384072575329613655632445734905349998583747136771156086968911,-0.5000000000000000000000000000000000000000000000000000000000000000000000000000000000000000000000000000 -4.757182227111292464841985727472841233324384072575329613655632445734905349998583747136771156086968911,9.500000000000000000000000000000000000000000000000000000000000000000000000000000000000000000000000000 -5.757182227111292464841985727472841233324384072575329613655632445734905349998583747136771156086968911,9.500000000000000000000000000000000000000000000000000000000000000000000000000000000000000000000000000 -5.757182227111292464841985727472841233324384072575329613655632445734905349998583747136771156086968911,-0.5000000000000000000000000000000000000000000000000000000000000000000000000000000000000000000000000000" />
<polygon class="no_fill_black_stroke" points="4.757182227111292464841985727472841233324384072575329613655632445734905349998583747136771156086968911,0.5000000000000000000000000000000000000000000000000000000000000000000000000000000000000000000000000000 4.549270536293533127740243443067716067107799311947605777248450471852522524334509370832142399364241337,1.478147600733805637928566747869599532459737808862677107885177663640596833120095121999758525454785637 4.142533893217732919986257452726218454184659660881432340954164119035484747809962965761340228843621744,2.391693058376406533430694319854916710400548268240151652946177451705711715222726393681542526348085632 3.554748640925259790817551498087145685587007223238286349881891638278206273647611008252836178980880408,3.200710052751353957532987737037735769260702858143033084013901763058341946632177618535146128442781200 2.811603815447865555802854449112888708397893349740259963841767967730435929226491882838672124732796599,3.869840659110212171359261067724516242860286077102828760831355115346308548342821515681301051802871268 1.945578411663426909039131278359952524926490722835069649813864478004469420772091864298099031354172311,4.369840659110212171359261067724516242860286077102828760831355115346308548342821515681301051802871268 0.9945218953682733369226919449805703815207920887093194273665588335743162506868983625793062203833609297,4.678857653485159595461554484907335301720440667005710191899079426698938779752272740534904653897566837 0,4.783386116752813066861388639709833420801096536480303305892354903411423430445452787363085052696171263 -0.9945218953682733369226919449805703815207920887093194273665588335743162506868983625793062203833609297,4.678857653485159595461554484907335301720440667005710191899079426698938779752272740534904653897566837 -1.945578411663426909039131278359952524926490722835069649813864478004469420772091864298099031354172311,4.369840659110212171359261067724516242860286077102828760831355115346308548342821515681301051802871268 -2.811603815447865555802854449112888708397893349740259963841767967730435929226491882838672124732796599,3.869840659110212171359261067724516242860286077102828760831355115346308548342821515681301051802871268 -3.554748640925259790817551498087145685587007223238286349881891638278206273647611008252836178980880408,3.200710052751353957532987737037735769260702858143033084013901763058341946632177618535146128442781200 -4.142533893217732919986257452726218454184659660881432340954164119035484747809962965761340228843621744,2.391693058376406533430694319854916710400548268240151652946177451705711715222726393681542526348085632 -4.549270536293533127740243443067716067107799311947605777248450471852522524334509370832142399364241337,1.478147600733805637928566747869599532459737808862677107885177663640596833120095121999758525454785637 -4.757182227111292464841985727472841233324384072575329613655632445734905349998583747136771156086968911,0.5000000000000000000000000000000000000000000000000000000000000000000000000000000000000000000000000000 -4.757182227111292464841985727472841233324384072575329613655632445734905349998583747136771156086968911,-0.5000000000000000000000000000000000000000000000000000000000000000000000000000000000000000000000000000 -4.549270536293533127740243443067716067107799311947605777248450471852522524334509370832142399364241337,-1.478147600733805637928566747869599532459737808862677107885177663640596833120095121999758525454785637 -4.142533893217732919986257452726218454184659660881432340954164119035484747809962965761340228843621744,-2.391693058376406533430694319854916710400548268240151652946177451705711715222726393681542526348085632 -3.554748640925259790817551498087145685587007223238286349881891638278206273647611008252836178980880408,-3.200710052751353957532987737037735769260702858143033084013901763058341946632177618535146128442781200 -2.811603815447865555802854449112888708397893349740259963841767967730435929226491882838672124732796599,-3.869840659110212171359261067724516242860286077102828760831355115346308548342821515681301051802871268 -1.945578411663426909039131278359952524926490722835069649813864478004469420772091864298099031354172311,-4.369840659110212171359261067724516242860286077102828760831355115346308548342821515681301051802871268 -0.9945218953682733369226919449805703815207920887093194273665588335743162506868983625793062203833609297,-4.678857653485159595461554484907335301720440667005710191899079426698938779752272740534904653897566837 0,-4.783386116752813066861388639709833420801096536480303305892354903411423430445452787363085052696171263 0.9945218953682733369226919449805703815207920887093194273665588335743162506868983625793062203833609297,-4.678857653485159595461554484907335301720440667005710191899079426698938779752272740534904653897566837 1.945578411663426909039131278359952524926490722835069649813864478004469420772091864298099031354172311,-4.369840659110212171359261067724516242860286077102828760831355115346308548342821515681301051802871268 2.811603815447865555802854449112888708397893349740259963841767967730435929226491882838672124732796599,-3.869840659110212171359261067724516242860286077102828760831355115346308548342821515681301051802871268 3.554748640925259790817551498087145685587007223238286349881891638278206273647611008252836178980880408,-3.200710052751353957532987737037735769260702858143033084013901763058341946632177618535146128442781200 4.142533893217732919986257452726218454184659660881432340954164119035484747809962965761340228843621744,-2.391693058376406533430694319854916710400548268240151652946177451705711715222726393681542526348085632 4.549270536293533127740243443067716067107799311947605777248450471852522524334509370832142399364241337,-1.478147600733805637928566747869599532459737808862677107885177663640596833120095121999758525454785637 4.757182227111292464841985727472841233324384072575329613655632445734905349998583747136771156086968911,-0.5000000000000000000000000000000000000000000000000000000000000000000000000000000000000000000000000000" />
<polygon class="no_fill_black_stroke" points="4.757182227111292464841985727472841233324384072575329613655632445734905349998583747136771156086968911,-0.5000000000000000000000000000000000000000000000000000000000000000000000000000000000000000000000000000 5.757182227111292464841985727472841233324384072575329613655632445734905349998583747136771156086968911,-0.5000000000000000000000000000000000000000000000000000000000000000000000000000000000000000000000000000 5.757182227111292464841985727472841233324384072575329613655632445734905349998583747136771156086968911,5.500000000000000000000000000000000000000000000000000000000000000000000000000000000000000000000000000 4.757182227111292464841985727472841233324384072575329613655632445734905349998583747136771156086968911,5.500000000000000000000000000000000000000000000000000000000000000000000000000000000000000000000000000" />
<polygon class="no_fill_black_stroke" points="5.757182227111292464841985727472841233324384072575329613655632445734905349998583747136771156086968911,4.500000000000000000000000000000000000000000000000000000000000000000000000000000000000000000000000000 5.965093917929051801943728011877966399540968833203053450062814419617288175662658123441399912809696484,3.521852399266194362071433252130400467540262191137322892114822336359403166879904878000241474545214363 6.371830561004852009697714002219464012464108484269226886357100772434325952187204528512202083330316077,2.608306941623593466569305680145083289599451731759848347053822548294288284777273606318457473651914368 6.959615813297325138866419956858536781061760921912372877429373253191604426349556486020706133193057413,1.799289947248646042467012262962264230739297141856966915986098236941658053367822381464853871557218800 7.702760638774719373881117005832793758250874795410399263469496923739374770770675611434870187441141222,1.130159340889787828640738932275483757139713922897171239168644884653691451657178484318698948197128732 8.568786042559158020644840176585729941722277422315589577497400413465341279225075629975443280819765510,0.6301593408897878286407389322754837571397139228971712391686448846536914516571784843186989481971287316 9.519842558854311592761279509965112085127976056441339799944706057895494449310269131694236091790576891,0.3211423465148404045384455150926646982795593329942898081009205733010612202477272594650953461024331628 10.51436445422258492968397145494568246664876814515065922731126489146981069999716749427354231217393782,0.2166138832471869331386113602901665791989034635196966941076450965885765695545472126369149473038287366 11.50888634959085826660666339992625284816956023385997865467782372504412695068406585685284853255729875,0.3211423465148404045384455150926646982795593329942898081009205733010612202477272594650953461024331628 12.45994286588601183872310273330563499157525886798572887712512936947428012076925935857164134352811013,0.6301593408897878286407389322754837571397139228971712391686448846536914516571784843186989481971287316 13.32596826967045048548682590405857117504666149489091919115303285920024662922365937711221443690673442,1.130159340889787828640738932275483757139713922897171239168644884653691451657178484318698948197128732 14.06911309514784472050152295303282815223577536838894557719315652974801697364477850252637849115481823,1.799289947248646042467012262962264230739297141856966915986098236941658053367822381464853871557218800 14.65689834744031784967022890767190092083342780603209156826542901050529544780713046003488254101755956,2.608306941623593466569305680145083289599451731759848347053822548294288284777273606318457473651914368 15.06363499051611805742421489801339853375656745709826500455971536332233322433167686510568471153817916,3.521852399266194362071433252130400467540262191137322892114822336359403166879904878000241474545214363 15.27154668133387739452595718241852369997315221772598884096689733720471604999575124141031346826090673,4.500000000000000000000000000000000000000000000000000000000000000000000000000000000000000000000000000 15.27154668133387739452595718241852369997315221772598884096689733720471604999575124141031346826090673,5.500000000000000000000000000000000000000000000000000000000000000000000000000000000000000000000000000 15.06363499051611805742421489801339853375656745709826500455971536332233322433167686510568471153817916,6.478147600733805637928566747869599532459737808862677107885177663640596833120095121999758525454785637 14.65689834744031784967022890767190092083342780603209156826542901050529544780713046003488254101755956,7.391693058376406533430694319854916710400548268240151652946177451705711715222726393681542526348085632 14.06911309514784472050152295303282815223577536838894557719315652974801697364477850252637849115481823,8.200710052751353957532987737037735769260702858143033084013901763058341946632177618535146128442781200 13.32596826967045048548682590405857117504666149489091919115303285920024662922365937711221443690673442,8.869840659110212171359261067724516242860286077102828760831355115346308548342821515681301051802871268 12.45994286588601183872310273330563499157525886798572887712512936947428012076925935857164134352811013,9.369840659110212171359261067724516242860286077102828760831355115346308548342821515681301051802871268 11.50888634959085826660666339992625284816956023385997865467782372504412695068406585685284853255729875,9.678857653485159595461554484907335301720440667005710191899079426698938779752272740534904653897566837 10.51436445422258492968397145494568246664876814515065922731126489146981069999716749427354231217393782,9.783386116752813066861388639709833420801096536480303305892354903411423430445452787363085052696171263 9.519842558854311592761279509965112085127976056441339799944706057895494449310269131694236091790576891,9.678857653485159595461554484907335301720440667005710191899079426698938779752272740534904653897566837 8.568786042559158020644840176585729941722277422315589577497400413465341279225075629975443280819765510,9.369840659110212171359261067724516242860286077102828760831355115346308548342821515681301051802871268 7.702760638774719373881117005832793758250874795410399263469496923739374770770675611434870187441141222,8.869840659110212171359261067724516242860286077102828760831355115346308548342821515681301051802871268 6.959615813297325138866419956858536781061760921912372877429373253191604426349556486020706133193057413,8.200710052751353957532987737037735769260702858143033084013901763058341946632177618535146128442781200 6.371830561004852009697714002219464012464108484269226886357100772434325952187204528512202083330316077,7.391693058376406533430694319854916710400548268240151652946177451705711715222726393681542526348085632 5.965093917929051801943728011877966399540968833203053450062814419617288175662658123441399912809696484,6.478147600733805637928566747869599532459737808862677107885177663640596833120095121999758525454785637 5.757182227111292464841985727472841233324384072575329613655632445734905349998583747136771156086968911,5.500000000000000000000000000000000000000000000000000000000000000000000000000000000000000000000000000" />
<polygon class="no_fill_black_stroke" points="15.06363499051611805742421489801339853375656745709826500455971536332233322433167686510568471153817916,6.478147600733805637928566747869599532459737808862677107885177663640596833120095121999758525454785637 17.35066358951147076554338002646977536213899982400322720503871707602854430663649500445660103548818246,-4.281476007338056379285667478695995324597378088626771078851776636405968331200951219997585254547856367 18.32881119024527640347194677433937489459873763286590431292389473966914113975659012645635956094296810,-4.073564316520297042183925194290870158380793327999047242444594662523585505536876843692956497825128794 16.04178259124992369535278164588299806621630526596094211244489302696293005745177198710544323699296480,6.686059291551564975030309032274724698676322569490400944292359637522979658784169498304387282177513210" />
</svg>
