<?xml version="1.0" encoding="utf-8"?>
<svg xmlns="http://www.w3.org/2000/svg" version="1.1" viewBox="-4.957182227111293 -5.164065809628774 22.42872890844517 10.147451926381587">
<style>.no_fill_black_stroke {fill:none; stroke:#000000; stroke-width:0.01;}</style>
<polygon class="no_fill_black_stroke" points="3.554748640925259790817551498087145685587007223238286349881891638278206273647611008252836178980880408,-3.200710052751353957532987737037735769260702858143033084013901763058341946632177618535146128442781200 4.142533893217732919986257452726218454184659660881432340954164119035484747809962965761340228843621744,-2.391693058376406533430694319854916710400548268240151652946177451705711715222726393681542526348085632 6.569584876342575192293137704274675630765123430590076634157337053093375442038316640322151035127708450,-4.155048815253825920936812183772135016193505581169589626162994893977547137709782266207054675936309640 5.981799624050102063124431749635602862167470992946930643085064572336096967875964682813646985264967114,-4.964065809628773345039105600954954075053660171072471057230719205330177369119233491060658278031005208" />
<polygon class="no_fill_black_stroke" points="4.757182227111292464841985727472841233324384072575329613655632445734905349998583747136771156086968911,0.5000000000000000000000000000000000000000000000000000000000000000000000000000000000000000000000000000 4.549270536293533127740243443067716067107799311947605777248450471852522524334509370832142399364241337,1.478147600733805637928566747869599532459737808862677107885177663640596833120095121999758525454785637 4.142533893217732919986257452726218454184659660881432340954164119035484747809962965761340228843621744,2.391693058376406533430694319854916710400548268240151652946177451705711715222726393681542526348085632 3.554748640925259790817551498087145685587007223238286349881891638278206273647611008252836178980880408,3.200710052751353957532987737037735769260702858143033084013901763058341946632177618535146128442781200 2.811603815447865555802854449112888708397893349740259963841767967730435929226491882838672124732796599,3.869840659110212171359261067724516242860286077102828760831355115346308548342821515681301051802871268 1.945578411663426909039131278359952524926490722835069649813864478004469420772091864298099031354172311,4.369840659110212171359261067724516242860286077102828760831355115346308548342821515681301051802871268 0.9945218953682733369226919449805703815207920887093194273665588335743162506868983625793062203833609297,4.678857653485159595461554484907335301720440667005710191899079426698938779752272740534904653897566837 0,4.783386116752813066861388639709833420801096536480303305892354903411423430445452787363085052696171263 -0.9945218953682733369226919449805703815207920887093194273665588335743162506868983625793062203833609297,4.678857653485159595461554484907335301720440667005710191899079426698938779752272740534904653897566837 -1.945578411663426909039131278359952524926490722835069649813864478004469420772091864298099031354172311,4.369840659110212171359261067724516242860286077102828760831355115346308548342821515681301051802871268 -2.811603815447865555802854449112888708397893349740259963841767967730435929226491882838672124732796599,3.869840659110212171359261067724516242860286077102828760831355115346308548342821515681301051802871268 -3.554748640925259790817551498087145685587007223238286349881891638278206273647611008252836178980880408,3.200710052751353957532987737037735769260702858143033084013901763058341946632177618535146128442781200 -4.142533893217732919986257452726218454184659660881432340954164119035484747809962965761340228843621744,2.391693058376406533430694319854916710400548268240151652946177451705711715222726393681542526348085632 -4.549270536293533127740243443067716067107799311947605777248450471852522524334509370832142399364241337,1.478147600733805637928566747869599532459737808862677107885177663640596833120095121999758525454785637 -4.757182227111292464841985727472841233324384072575329613655632445734905349998583747136771156086968911,0.5000000000000000000000000000000000000000000000000000000000000000000000000000000000000000000000000000 -4.757182227111292464841985727472841233324384072575329613655632445734905349998583747136771156086968911,-0.5000000000000000000000000000000000000000000000000000000000000000000000000000000000000000000000000000 -4.549270536293533127740243443067716067107799311947605777248450471852522524334509370832142399364241337,-1.478147600733805637928566747869599532459737808862677107885177663640596833120095121999758525454785637 -4.142533893217732919986257452726218454184659660881432340954164119035484747809962965761340228843621744,-2.391693058376406533430694319854916710400548268240151652946177451705711715222726393681542526348085632 -3.554748640925259790817551498087145685587007223238286349881891638278206273647611008252836178980880408,-3.200710052751353957532987737037735769260702858143033084013901763058341946632177618535146128442781200 -2.811603815447865555802854449112888708397893349740259963841767967730435929226491882838672124732796599,-3.869840659110212171359261067724516242860286077102828760831355115346308548342821515681301051802871268 -1.945578411663426909039131278359952524926490722835069649813864478004469420772091864298099031354172311,-4.369840659110212171359261067724516242860286077102828760831355115346308548342821515681301051802871268 -0.9945218953682733369226919449805703815207920887093194273665588335743162506868983625793062203833609297,-4.678857653485159595461554484907335301720440667005710191899079426698938779752272740534904653897566837 0,-4.783386116752813066861388639709833420801096536480303305892354903411423430445452787363085052696171263 0.9945218953682733369226919449805703815207920887093194273665588335743162506868983625793062203833609297,-4.678857653485159595461554484907335301720440667005710191899079426698938779752272740534904653897566837 1.945578411663426909039131278359952524926490722835069649813864478004469420772091864298099031354172311,-4.369840659110212171359261067724516242860286077102828760831355115346308548342821515681301051802871268 2.811603815447865555802854449112888708397893349740259963841767967730435929226491882838672124732796599,-3.869840659110212171359261067724516242860286077102828760831355115346308548342821515681301051802871268 3.554748640925259790817551498087145685587007223238286349881891638278206273647611008252836178980880408,-3.200710052751353957532987737037735769260702858143033084013901763058341946632177618535146128442781200 4.142533893217732919986257452726218454184659660881432340954164119035484747809962965761340228843621744,-2.391693058376406533430694319854916710400548268240151652946177451705711715222726393681542526348085632 4.549270536293533127740243443067716067107799311947605777248450471852522524334509370832142399364241337,-1.478147600733805637928566747869599532459737808862677107885177663640596833120095121999758525454785637 4.757182227111292464841985727472841233324384072575329613655632445734905349998583747136771156086968911,-0.5000000000000000000000000000000000000000000000000000000000000000000000000000000000000000000000000000" />
<polygon class="no_fill_black_stroke" points="4.757182227111292464841985727472841233324384072575329613655632445734905349998583747136771156086968911,-0.5000000000000000000000000000000000000000000000000000000000000000000000000000000000000000000000000000 7.757182227111292464841985727472841233324384072575329613655632445734905349998583747136771156086968911,-0.5000000000000000000000000000000000000000000000000000000000000000000000000000000000000000000000000000 7.757182227111292464841985727472841233324384072575329613655632445734905349998583747136771156086968911,0.5000000000000000000000000000000000000000000000000000000000000000000000000000000000000000000000000000 4.757182227111292464841985727472841233324384072575329613655632445734905349998583747136771156086968911,0.5000000000000000000000000000000000000000000000000000000000000000000000000000000000000000000000000000" />
<polygon class="no_fill_black_stroke" points="7.757182227111292464841985727472841233324384072575329613655632445734905349998583747136771156086968911,-0.5000000000000000000000000000000000000000000000000000000000000000000000000000000000000000000000000000 7.965093917929051801943728011877966399540968833203053450062814419617288175662658123441399912809696484,-1.478147600733805637928566747869599532459737808862677107885177663640596833120095121999758525454785637 8.371830561004852009697714002219464012464108484269226886357100772434325952187204528512202083330316077,-2.391693058376406533430694319854916710400548268240151652946177451705711715222726393681542526348085632 8.959615813297325138866419956858536781061760921912372877429373253191604426349556486020706133193057413,-3.200710052751353957532987737037735769260702858143033084013901763058341946632177618535146128442781200 9.702760638774719373881117005832793758250874795410399263469496923739374770770675611434870187441141222,-3.869840659110212171359261067724516242860286077102828760831355115346308548342821515681301051802871268 10.56878604255915802064484017658572994172227742231558957749740041346534127922507562997544328081976551,-4.369840659110212171359261067724516242860286077102828760831355115346308548342821515681301051802871268 11.51984255885431159276127950996511208512797605644133979994470605789549444931026913169423609179057689,-4.678857653485159595461554484907335301720440667005710191899079426698938779752272740534904653897566837 12.51436445422258492968397145494568246664876814515065922731126489146981069999716749427354231217393782,-4.783386116752813066861388639709833420801096536480303305892354903411423430445452787363085052696171263 13.50888634959085826660666339992625284816956023385997865467782372504412695068406585685284853255729875,-4.678857653485159595461554484907335301720440667005710191899079426698938779752272740534904653897566837 14.45994286588601183872310273330563499157525886798572887712512936947428012076925935857164134352811013,-4.369840659110212171359261067724516242860286077102828760831355115346308548342821515681301051802871268 15.32596826967045048548682590405857117504666149489091919115303285920024662922365937711221443690673442,-3.869840659110212171359261067724516242860286077102828760831355115346308548342821515681301051802871268 16.06911309514784472050152295303282815223577536838894557719315652974801697364477850252637849115481823,-3.200710052751353957532987737037735769260702858143033084013901763058341946632177618535146128442781200 16.65689834744031784967022890767190092083342780603209156826542901050529544780713046003488254101755956,-2.391693058376406533430694319854916710400548268240151652946177451705711715222726393681542526348085632 17.06363499051611805742421489801339853375656745709826500455971536332233322433167686510568471153817916,-1.478147600733805637928566747869599532459737808862677107885177663640596833120095121999758525454785637 17.27154668133387739452595718241852369997315221772598884096689733720471604999575124141031346826090673,-0.5000000000000000000000000000000000000000000000000000000000000000000000000000000000000000000000000000 17.27154668133387739452595718241852369997315221772598884096689733720471604999575124141031346826090673,0.5000000000000000000000000000000000000000000000000000000000000000000000000000000000000000000000000000 17.06363499051611805742421489801339853375656745709826500455971536332233322433167686510568471153817916,1.478147600733805637928566747869599532459737808862677107885177663640596833120095121999758525454785637 16.65689834744031784967022890767190092083342780603209156826542901050529544780713046003488254101755956,2.391693058376406533430694319854916710400548268240151652946177451705711715222726393681542526348085632 16.06911309514784472050152295303282815223577536838894557719315652974801697364477850252637849115481823,3.200710052751353957532987737037735769260702858143033084013901763058341946632177618535146128442781200 15.32596826967045048548682590405857117504666149489091919115303285920024662922365937711221443690673442,3.869840659110212171359261067724516242860286077102828760831355115346308548342821515681301051802871268 14.45994286588601183872310273330563499157525886798572887712512936947428012076925935857164134352811013,4.369840659110212171359261067724516242860286077102828760831355115346308548342821515681301051802871268 13.50888634959085826660666339992625284816956023385997865467782372504412695068406585685284853255729875,4.678857653485159595461554484907335301720440667005710191899079426698938779752272740534904653897566837 12.51436445422258492968397145494568246664876814515065922731126489146981069999716749427354231217393782,4.783386116752813066861388639709833420801096536480303305892354903411423430445452787363085052696171263 11.51984255885431159276127950996511208512797605644133979994470605789549444931026913169423609179057689,4.678857653485159595461554484907335301720440667005710191899079426698938779752272740534904653897566837 10.56878604255915802064484017658572994172227742231558957749740041346534127922507562997544328081976551,4.369840659110212171359261067724516242860286077102828760831355115346308548342821515681301051802871268 9.702760638774719373881117005832793758250874795410399263469496923739374770770675611434870187441141222,3.869840659110212171359261067724516242860286077102828760831355115346308548342821515681301051802871268 8.959615813297325138866419956858536781061760921912372877429373253191604426349556486020706133193057413,3.200710052751353957532987737037735769260702858143033084013901763058341946632177618535146128442781200 8.371830561004852009697714002219464012464108484269226886357100772434325952187204528512202083330316077,2.391693058376406533430694319854916710400548268240151652946177451705711715222726393681542526348085632 7.965093917929051801943728011877966399540968833203053450062814419617288175662658123441399912809696484,1.478147600733805637928566747869599532459737808862677107885177663640596833120095121999758525454785637 7.757182227111292464841985727472841233324384072575329613655632445734905349998583747136771156086968911,0.5000000000000000000000000000000000000000000000000000000000000000000000000000000000000000000000000000" />
<polygon class="no_fill_black_stroke" points="8.371830561004852009697714002219464012464108484269226886357100772434325952187204528512202083330316077,-2.391693058376406533430694319854916710400548268240151652946177451705711715222726393681542526348085632 7.558357274853251594189742021536468786617829182136880013768528066800250399138111718370597742289076890,-0.5646021430912047424264391758842823545189273494852025628241778755754819510174638503179745245614856417 4.817720901925448907683359305580517252795397804004456378585528702604905752830217903325245739609176905,-1.784812072318605365688397146908775193288346302683722871707036934026595280591103065530381036123344423 5.631194188077049323191331286263512478641677106136803251174101408238981305879310713466850080650416092,-3.611902987603807156692652290879409549169967221438671961829036510156825044796365608893949037909944413" />
</svg>
