<?xml version="1.0" encoding="utf-8"?>
<svg xmlns="http://www.w3.org/2000/svg" version="1.1" viewBox="-2.6048671723720656 -2.5916930583764066 10.114364454222585 5.183386116752813">
<style>.no_fill_black_stroke {fill:none; stroke:#000000; stroke-width:0.01;}</style>
<polygon class="no_fill_black_stroke" points="2.352315054739227116793117268701450137849630373901243086108150830821507197296638269368901201874791905,0.5000000000000000000000000000000000000000000000000000000000000000000000000000000000000000000000000000 1.945578411663426909039131278359952524926490722835069649813864478004469420772091864298099031354172311,1.413545457642600895502127571985317177940810459377474545060999788065114882102631271681784000893299995 1.202433586186032674024434229385695547737376849337043263773740807456699076350972738883934977106088503,2.082676064001459109328400902672097651540393678337270221878453140353081483813275168827938924253390063 0.2513770698908791019079948960063134043316782152112930413264351630265459062657792371651421661352771211,2.391693058376406533430694319854916710400548268240151652946177451705711715222726393681542526348085632 -0.7431448254773942350146970489742569771891138734980263860401236705477703444211191254141640542480838086,2.287164595108753062030860165052418591319892398765558538952901974993227064529546346853362127549481205 -1.609170229261832881778420219727193160660516500403216700068027160273736852875519143954737147626708096,1.787164595108753062030860165052418591319892398765558538952901974993227064529546346853362127549481205 -2.196955481554306010947126174366265929258168938046362691140299641031015327037871101463241197489449432,0.9781476007338056379285667478695995324597378088626771078851776636405968331200951219997585254547856367 -2.404867172372065348048868458771391095474753698674086527547481614913398152701945477767869954212177005,0 -2.196955481554306010947126174366265929258168938046362691140299641031015327037871101463241197489449432,-0.9781476007338056379285667478695995324597378088626771078851776636405968331200951219997585254547856367 -1.609170229261832881778420219727193160660516500403216700068027160273736852875519143954737147626708096,-1.787164595108753062030860165052418591319892398765558538952901974993227064529546346853362127549481205 -0.7431448254773942350146970489742569771891138734980263860401236705477703444211191254141640542480838086,-2.287164595108753062030860165052418591319892398765558538952901974993227064529546346853362127549481205 0.2513770698908791019079948960063134043316782152112930413264351630265459062657792371651421661352771211,-2.391693058376406533430694319854916710400548268240151652946177451705711715222726393681542526348085632 1.202433586186032674024434229385695547737376849337043263773740807456699076350972738883934977106088503,-2.082676064001459109328400902672097651540393678337270221878453140353081483813275168827938924253390063 1.945578411663426909039131278359952524926490722835069649813864478004469420772091864298099031354172311,-1.413545457642600895502127571985317177940810459377474545060999788065114882102631271681784000893299995 2.352315054739227116793117268701450137849630373901243086108150830821507197296638269368901201874791905,-0.5000000000000000000000000000000000000000000000000000000000000000000000000000000000000000000000000000" />
<polygon class="no_fill_black_stroke" points="2.352315054739227116793117268701450137849630373901243086108150830821507197296638269368901201874791905,-0.5000000000000000000000000000000000000000000000000000000000000000000000000000000000000000000000000000 2.552315054739227127895347514953015542085947054809446211108150830821507197296638269368901201874791905,-0.5000000000000000000000000000000000000000000000000000000000000000000000000000000000000000000000000000 2.552315054739227127895347514953015542085947054809446211108150830821507197296638269368901201874791905,0.5000000000000000000000000000000000000000000000000000000000000000000000000000000000000000000000000000 2.352315054739227116793117268701450137849630373901243086108150830821507197296638269368901201874791905,0.5000000000000000000000000000000000000000000000000000000000000000000000000000000000000000000000000000" />
<polygon class="no_fill_black_stroke" points="2.552315054739227127895347514953015542085947054809446211108150830821507197296638269368901201874791905,-0.5000000000000000000000000000000000000000000000000000000000000000000000000000000000000000000000000000 2.959051697815027335649333505294513155009086705875619647402437183638544973821184674439703372395411499,-1.413545457642600895502127571985317177940810459377474545060999788065114882102631271681784000893299995 3.702196523292421570664030554268770132198200579373646033442560854186315318242303799853867426643495307,-2.082676064001459109328400902672097651540393678337270221878453140353081483813275168827938924253390063 4.653253039587575142780469887648152275603899213499396255889866498616468488327497301572660237614306689,-2.391693058376406533430694319854916710400548268240151652946177451705711715222726393681542526348085632 5.647774934955848479703161832628722657124691302208715683256425332190784739014395664151966457997667619,-2.287164595108753062030860165052418591319892398765558538952901974993227064529546346853362127549481205 6.513800338740287126466885003381658840596093929113905997284328821916751247468795682692539551376291907,-1.787164595108753062030860165052418591319892398765558538952901974993227064529546346853362127549481205 7.101585591032760255635590958020731609193746366757051988356601302674029721631147640201043601239033243,-0.9781476007338056379285667478695995324597378088626771078851776636405968331200951219997585254547856367 7.309497281850519592737333242425856775410331127384775824763783276556412547295222016505672357961760816,0E-208 7.101585591032760255635590958020731609193746366757051988356601302674029721631147640201043601239033243,0.9781476007338056379285667478695995324597378088626771078851776636405968331200951219997585254547856367 6.513800338740287126466885003381658840596093929113905997284328821916751247468795682692539551376291907,1.787164595108753062030860165052418591319892398765558538952901974993227064529546346853362127549481205 5.647774934955848479703161832628722657124691302208715683256425332190784739014395664151966457997667619,2.287164595108753062030860165052418591319892398765558538952901974993227064529546346853362127549481205 4.653253039587575142780469887648152275603899213499396255889866498616468488327497301572660237614306689,2.391693058376406533430694319854916710400548268240151652946177451705711715222726393681542526348085632 3.702196523292421570664030554268770132198200579373646033442560854186315318242303799853867426643495307,2.082676064001459109328400902672097651540393678337270221878453140353081483813275168827938924253390063 2.959051697815027335649333505294513155009086705875619647402437183638544973821184674439703372395411499,1.413545457642600895502127571985317177940810459377474545060999788065114882102631271681784000893299995 2.552315054739227127895347514953015542085947054809446211108150830821507197296638269368901201874791905,0.5000000000000000000000000000000000000000000000000000000000000000000000000000000000000000000000000000" />
</svg>
