<?xml version="1.0" encoding="utf-8"?>
<svg xmlns="http://www.w3.org/2000/svg" version="1.1" viewBox="-4.957182227111293 -4.983386116752813 20.42872890844517 11.692993371747473">
<style>.no_fill_black_stroke {fill:none; stroke:#000000; stroke-width:0.01;}</style>
<polygon class="no_fill_black_stroke" points="-0.9945218953682733369226919449805703815207920887093194273665588335743162506868983625793062203833609297,4.678857653485159595461554484907335301720440667005710191899079426698938779752272740534904653897566837 6.961653267577913358458843614863992670645544620965235991565911835020213754808288538055143542683526508,5.515085359626387366660227723327320254365687622802455103845283240398815985297713115160347844286402247 6.857124804310259887059009460061494551564888751490642877572636358307729104115108491226963143884922081,6.509607254994660703582919668307890635886479711511774531211842073973132235984611477739654064669763177 -1.099050358635926808322526099783068500601447958183912541359834310286800901380078409407486619181965356,5.673379548853432932384246429887905683241232755715029619265638260273255030439171103114210874280927767" />
<polygon class="no_fill_black_stroke" points="4.757182227111292464841985727472841233324384072575329613655632445734905349998583747136771156086968911,0.5000000000000000000000000000000000000000000000000000000000000000000000000000000000000000000000000000 4.549270536293533127740243443067716067107799311947605777248450471852522524334509370832142399364241337,1.478147600733805637928566747869599532459737808862677107885177663640596833120095121999758525454785637 4.142533893217732919986257452726218454184659660881432340954164119035484747809962965761340228843621744,2.391693058376406533430694319854916710400548268240151652946177451705711715222726393681542526348085632 3.554748640925259790817551498087145685587007223238286349881891638278206273647611008252836178980880408,3.200710052751353957532987737037735769260702858143033084013901763058341946632177618535146128442781200 2.811603815447865555802854449112888708397893349740259963841767967730435929226491882838672124732796599,3.869840659110212171359261067724516242860286077102828760831355115346308548342821515681301051802871268 1.945578411663426909039131278359952524926490722835069649813864478004469420772091864298099031354172311,4.369840659110212171359261067724516242860286077102828760831355115346308548342821515681301051802871268 0.9945218953682733369226919449805703815207920887093194273665588335743162506868983625793062203833609297,4.678857653485159595461554484907335301720440667005710191899079426698938779752272740534904653897566837 0,4.783386116752813066861388639709833420801096536480303305892354903411423430445452787363085052696171263 -0.9945218953682733369226919449805703815207920887093194273665588335743162506868983625793062203833609297,4.678857653485159595461554484907335301720440667005710191899079426698938779752272740534904653897566837 -1.945578411663426909039131278359952524926490722835069649813864478004469420772091864298099031354172311,4.369840659110212171359261067724516242860286077102828760831355115346308548342821515681301051802871268 -2.811603815447865555802854449112888708397893349740259963841767967730435929226491882838672124732796599,3.869840659110212171359261067724516242860286077102828760831355115346308548342821515681301051802871268 -3.554748640925259790817551498087145685587007223238286349881891638278206273647611008252836178980880408,3.200710052751353957532987737037735769260702858143033084013901763058341946632177618535146128442781200 -4.142533893217732919986257452726218454184659660881432340954164119035484747809962965761340228843621744,2.391693058376406533430694319854916710400548268240151652946177451705711715222726393681542526348085632 -4.549270536293533127740243443067716067107799311947605777248450471852522524334509370832142399364241337,1.478147600733805637928566747869599532459737808862677107885177663640596833120095121999758525454785637 -4.757182227111292464841985727472841233324384072575329613655632445734905349998583747136771156086968911,0.5000000000000000000000000000000000000000000000000000000000000000000000000000000000000000000000000000 -4.757182227111292464841985727472841233324384072575329613655632445734905349998583747136771156086968911,-0.5000000000000000000000000000000000000000000000000000000000000000000000000000000000000000000000000000 -4.549270536293533127740243443067716067107799311947605777248450471852522524334509370832142399364241337,-1.478147600733805637928566747869599532459737808862677107885177663640596833120095121999758525454785637 -4.142533893217732919986257452726218454184659660881432340954164119035484747809962965761340228843621744,-2.391693058376406533430694319854916710400548268240151652946177451705711715222726393681542526348085632 -3.554748640925259790817551498087145685587007223238286349881891638278206273647611008252836178980880408,-3.200710052751353957532987737037735769260702858143033084013901763058341946632177618535146128442781200 -2.811603815447865555802854449112888708397893349740259963841767967730435929226491882838672124732796599,-3.869840659110212171359261067724516242860286077102828760831355115346308548342821515681301051802871268 -1.945578411663426909039131278359952524926490722835069649813864478004469420772091864298099031354172311,-4.369840659110212171359261067724516242860286077102828760831355115346308548342821515681301051802871268 -0.9945218953682733369226919449805703815207920887093194273665588335743162506868983625793062203833609297,-4.678857653485159595461554484907335301720440667005710191899079426698938779752272740534904653897566837 0,-4.783386116752813066861388639709833420801096536480303305892354903411423430445452787363085052696171263 0.9945218953682733369226919449805703815207920887093194273665588335743162506868983625793062203833609297,-4.678857653485159595461554484907335301720440667005710191899079426698938779752272740534904653897566837 1.945578411663426909039131278359952524926490722835069649813864478004469420772091864298099031354172311,-4.369840659110212171359261067724516242860286077102828760831355115346308548342821515681301051802871268 2.811603815447865555802854449112888708397893349740259963841767967730435929226491882838672124732796599,-3.869840659110212171359261067724516242860286077102828760831355115346308548342821515681301051802871268 3.554748640925259790817551498087145685587007223238286349881891638278206273647611008252836178980880408,-3.200710052751353957532987737037735769260702858143033084013901763058341946632177618535146128442781200 4.142533893217732919986257452726218454184659660881432340954164119035484747809962965761340228843621744,-2.391693058376406533430694319854916710400548268240151652946177451705711715222726393681542526348085632 4.549270536293533127740243443067716067107799311947605777248450471852522524334509370832142399364241337,-1.478147600733805637928566747869599532459737808862677107885177663640596833120095121999758525454785637 4.757182227111292464841985727472841233324384072575329613655632445734905349998583747136771156086968911,-0.5000000000000000000000000000000000000000000000000000000000000000000000000000000000000000000000000000" />
<polygon class="no_fill_black_stroke" points="4.757182227111292464841985727472841233324384072575329613655632445734905349998583747136771156086968911,-0.5000000000000000000000000000000000000000000000000000000000000000000000000000000000000000000000000000 5.757182227111292464841985727472841233324384072575329613655632445734905349998583747136771156086968911,-0.5000000000000000000000000000000000000000000000000000000000000000000000000000000000000000000000000000 5.757182227111292464841985727472841233324384072575329613655632445734905349998583747136771156086968911,0.5000000000000000000000000000000000000000000000000000000000000000000000000000000000000000000000000000 4.757182227111292464841985727472841233324384072575329613655632445734905349998583747136771156086968911,0.5000000000000000000000000000000000000000000000000000000000000000000000000000000000000000000000000000" />
<polygon class="no_fill_black_stroke" points="5.757182227111292464841985727472841233324384072575329613655632445734905349998583747136771156086968911,-0.5000000000000000000000000000000000000000000000000000000000000000000000000000000000000000000000000000 5.965093917929051801943728011877966399540968833203053450062814419617288175662658123441399912809696484,-1.478147600733805637928566747869599532459737808862677107885177663640596833120095121999758525454785637 6.371830561004852009697714002219464012464108484269226886357100772434325952187204528512202083330316077,-2.391693058376406533430694319854916710400548268240151652946177451705711715222726393681542526348085632 6.959615813297325138866419956858536781061760921912372877429373253191604426349556486020706133193057413,-3.200710052751353957532987737037735769260702858143033084013901763058341946632177618535146128442781200 7.702760638774719373881117005832793758250874795410399263469496923739374770770675611434870187441141222,-3.869840659110212171359261067724516242860286077102828760831355115346308548342821515681301051802871268 8.568786042559158020644840176585729941722277422315589577497400413465341279225075629975443280819765510,-4.369840659110212171359261067724516242860286077102828760831355115346308548342821515681301051802871268 9.519842558854311592761279509965112085127976056441339799944706057895494449310269131694236091790576891,-4.678857653485159595461554484907335301720440667005710191899079426698938779752272740534904653897566837 10.51436445422258492968397145494568246664876814515065922731126489146981069999716749427354231217393782,-4.783386116752813066861388639709833420801096536480303305892354903411423430445452787363085052696171263 11.50888634959085826660666339992625284816956023385997865467782372504412695068406585685284853255729875,-4.678857653485159595461554484907335301720440667005710191899079426698938779752272740534904653897566837 12.45994286588601183872310273330563499157525886798572887712512936947428012076925935857164134352811013,-4.369840659110212171359261067724516242860286077102828760831355115346308548342821515681301051802871268 13.32596826967045048548682590405857117504666149489091919115303285920024662922365937711221443690673442,-3.869840659110212171359261067724516242860286077102828760831355115346308548342821515681301051802871268 14.06911309514784472050152295303282815223577536838894557719315652974801697364477850252637849115481823,-3.200710052751353957532987737037735769260702858143033084013901763058341946632177618535146128442781200 14.65689834744031784967022890767190092083342780603209156826542901050529544780713046003488254101755956,-2.391693058376406533430694319854916710400548268240151652946177451705711715222726393681542526348085632 15.06363499051611805742421489801339853375656745709826500455971536332233322433167686510568471153817916,-1.478147600733805637928566747869599532459737808862677107885177663640596833120095121999758525454785637 15.27154668133387739452595718241852369997315221772598884096689733720471604999575124141031346826090673,-0.5000000000000000000000000000000000000000000000000000000000000000000000000000000000000000000000000000 15.27154668133387739452595718241852369997315221772598884096689733720471604999575124141031346826090673,0.5000000000000000000000000000000000000000000000000000000000000000000000000000000000000000000000000000 15.06363499051611805742421489801339853375656745709826500455971536332233322433167686510568471153817916,1.478147600733805637928566747869599532459737808862677107885177663640596833120095121999758525454785637 14.65689834744031784967022890767190092083342780603209156826542901050529544780713046003488254101755956,2.391693058376406533430694319854916710400548268240151652946177451705711715222726393681542526348085632 14.06911309514784472050152295303282815223577536838894557719315652974801697364477850252637849115481823,3.200710052751353957532987737037735769260702858143033084013901763058341946632177618535146128442781200 13.32596826967045048548682590405857117504666149489091919115303285920024662922365937711221443690673442,3.869840659110212171359261067724516242860286077102828760831355115346308548342821515681301051802871268 12.45994286588601183872310273330563499157525886798572887712512936947428012076925935857164134352811013,4.369840659110212171359261067724516242860286077102828760831355115346308548342821515681301051802871268 11.50888634959085826660666339992625284816956023385997865467782372504412695068406585685284853255729875,4.678857653485159595461554484907335301720440667005710191899079426698938779752272740534904653897566837 10.51436445422258492968397145494568246664876814515065922731126489146981069999716749427354231217393782,4.783386116752813066861388639709833420801096536480303305892354903411423430445452787363085052696171263 9.519842558854311592761279509965112085127976056441339799944706057895494449310269131694236091790576891,4.678857653485159595461554484907335301720440667005710191899079426698938779752272740534904653897566837 8.568786042559158020644840176585729941722277422315589577497400413465341279225075629975443280819765510,4.369840659110212171359261067724516242860286077102828760831355115346308548342821515681301051802871268 7.702760638774719373881117005832793758250874795410399263469496923739374770770675611434870187441141222,3.869840659110212171359261067724516242860286077102828760831355115346308548342821515681301051802871268 6.959615813297325138866419956858536781061760921912372877429373253191604426349556486020706133193057413,3.200710052751353957532987737037735769260702858143033084013901763058341946632177618535146128442781200 6.371830561004852009697714002219464012464108484269226886357100772434325952187204528512202083330316077,2.391693058376406533430694319854916710400548268240151652946177451705711715222726393681542526348085632 5.965093917929051801943728011877966399540968833203053450062814419617288175662658123441399912809696484,1.478147600733805637928566747869599532459737808862677107885177663640596833120095121999758525454785637 5.757182227111292464841985727472841233324384072575329613655632445734905349998583747136771156086968911,0.5000000000000000000000000000000000000000000000000000000000000000000000000000000000000000000000000000" />
<polygon class="no_fill_black_stroke" points="14.06911309514784472050152295303282815223577536838894557719315652974801697364477850252637849115481823,3.200710052751353957532987737037735769260702858143033084013901763058341946632177618535146128442781200 11.83967861871566201545743180611005722066843374789486641907278551810470594038142112628388632841056680,5.208101871827928599011807729098077190059452515022420114466261819922241751764109309973610898523051404 12.50880922507452022928370513679683769426801696685466209589023887039267254209206502343004125177065687,5.951246697305322834026504778072334167248566388520446500506385490470012096185228435387774952771135213 14.73824370150670293432779628371960862583535858734874125401060988203598357535542239967253341451490830,3.943854878228748192547684786011992746449816731641059470054025433606112291053296743949310182690865009" />
</svg>
