<?xml version="1.0" encoding="utf-8"?>
<svg xmlns="http://www.w3.org/2000/svg" version="1.1" viewBox="-3.035640909808855 -3.6713858673776825 13.711563639235418 6.7507711089494995">
<style>.no_fill_black_stroke {fill:none; stroke:#000000; stroke-width:0.01;}</style>
<polygon class="no_fill_black_stroke" points="2.835640909808854765497209219931982210812689130344875151607954994437621708340472497089929913490864086,-0.5000000000000000000000000000000000000000000000000000000000000000000000000000000000000000000000000000 2.493620766483186032453109605249722630049605762830714523142906496752906944638394897525739731152338539,-1.439692620785908384054109277324731469936208134264464633090286662774221210995889458949745889837948067 4.343875536810639640655650772302118894353999579197445385697680935755348509089301242197789388243258283,-2.113130282994150119417941418634100584458719284899846910537967154715424580725280252491636358862504871 4.685895680136308373699750386984378475117082946711606014162729433440063272791378841761979570581783831,-1.173437662208241735363832141309369114522511150635382277447680491941203369729390793541890469024556803" />
<polygon class="no_fill_black_stroke" points="2.835640909808854765497209219931982210812689130344875151607954994437621708340472497089929913490864086,0.5000000000000000000000000000000000000000000000000000000000000000000000000000000000000000000000000000 2.493620766483186032453109605249722630049605762830714523142906496752906944638394897525739731152338539,1.439692620785908384054109277324731469936208134264464633090286662774221210995889458949745889837948067 1.850833156796646706130466195342459197142045878625032732817929242081794108397436257815251503434744187,2.205737063904886419256501927880148143872040591344859878944331947416376599852764182477975166518496561 0.9848077530122080593667430245895230136706432517198424187900257523558275999430362392746784100561198992,2.705737063904886419256501927880148143872040591344859878944331947416376599852764182477975166518496561 0,2.879385241571816768108218554649462939872416268528929266180573325548442421991778917899491779675896135 -0.9848077530122080593667430245895230136706432517198424187900257523558275999430362392746784100561198992,2.705737063904886419256501927880148143872040591344859878944331947416376599852764182477975166518496561 -1.850833156796646706130466195342459197142045878625032732817929242081794108397436257815251503434744187,2.205737063904886419256501927880148143872040591344859878944331947416376599852764182477975166518496561 -2.493620766483186032453109605249722630049605762830714523142906496752906944638394897525739731152338539,1.439692620785908384054109277324731469936208134264464633090286662774221210995889458949745889837948067 -2.835640909808854765497209219931982210812689130344875151607954994437621708340472497089929913490864086,0.5000000000000000000000000000000000000000000000000000000000000000000000000000000000000000000000000000 -2.835640909808854765497209219931982210812689130344875151607954994437621708340472497089929913490864086,-0.5000000000000000000000000000000000000000000000000000000000000000000000000000000000000000000000000000 -2.493620766483186032453109605249722630049605762830714523142906496752906944638394897525739731152338539,-1.439692620785908384054109277324731469936208134264464633090286662774221210995889458949745889837948067 -1.850833156796646706130466195342459197142045878625032732817929242081794108397436257815251503434744187,-2.205737063904886419256501927880148143872040591344859878944331947416376599852764182477975166518496561 -0.9848077530122080593667430245895230136706432517198424187900257523558275999430362392746784100561198992,-2.705737063904886419256501927880148143872040591344859878944331947416376599852764182477975166518496561 0,-2.879385241571816768108218554649462939872416268528929266180573325548442421991778917899491779675896135 0.9848077530122080593667430245895230136706432517198424187900257523558275999430362392746784100561198992,-2.705737063904886419256501927880148143872040591344859878944331947416376599852764182477975166518496561 1.850833156796646706130466195342459197142045878625032732817929242081794108397436257815251503434744187,-2.205737063904886419256501927880148143872040591344859878944331947416376599852764182477975166518496561 2.493620766483186032453109605249722630049605762830714523142906496752906944638394897525739731152338539,-1.439692620785908384054109277324731469936208134264464633090286662774221210995889458949745889837948067 2.835640909808854765497209219931982210812689130344875151607954994437621708340472497089929913490864086,-0.5000000000000000000000000000000000000000000000000000000000000000000000000000000000000000000000000000" />
<polygon class="no_fill_black_stroke" points="2.835640909808854765497209219931982210812689130344875151607954994437621708340472497089929913490864086,-0.5000000000000000000000000000000000000000000000000000000000000000000000000000000000000000000000000000 4.804640909808854765497209219931982210812689130344875151607954994437621708340472497089929913490864086,-0.5000000000000000000000000000000000000000000000000000000000000000000000000000000000000000000000000000 4.804640909808854765497209219931982210812689130344875151607954994437621708340472497089929913490864086,0.5000000000000000000000000000000000000000000000000000000000000000000000000000000000000000000000000000 2.835640909808854765497209219931982210812689130344875151607954994437621708340472497089929913490864086,0.5000000000000000000000000000000000000000000000000000000000000000000000000000000000000000000000000000" />
<polygon class="no_fill_black_stroke" points="4.804640909808854765497209219931982210812689130344875151607954994437621708340472497089929913490864086,-0.5000000000000000000000000000000000000000000000000000000000000000000000000000000000000000000000000000 5.146661053134523498541308834614241791575772497859035780073003492122336472042550096654120095829389634,-1.439692620785908384054109277324731469936208134264464633090286662774221210995889458949745889837948067 5.789448662821062824863952244521505224483332382064717570397980746793449308283508736364608323546983985,-2.205737063904886419256501927880148143872040591344859878944331947416376599852764182477975166518496561 6.655474066605501471627675415274441407954735008969907884425884236519415816737908754905181416925608273,-2.705737063904886419256501927880148143872040591344859878944331947416376599852764182477975166518496561 7.640281819617709530994418439863964421625378260689750303215909988875243416680944994179859826981728172,-2.879385241571816768108218554649462939872416268528929266180573325548442421991778917899491779675896135 8.625089572629917590361161464453487435296021512409592722005935741231071016623981233454538237037848071,-2.705737063904886419256501927880148143872040591344859878944331947416376599852764182477975166518496561 9.491114976414356237124884635206423618767424139314783036033839230957037525078381251995111330416472359,-2.205737063904886419256501927880148143872040591344859878944331947416376599852764182477975166518496561 10.13390258610089556344752804511368705167498402352046482635881648562815036131933989170559955813406671,-1.439692620785908384054109277324731469936208134264464633090286662774221210995889458949745889837948067 10.47592272942656429649162765979594663243806739103462545482386498331286512502141749126978974047259226,-0.5000000000000000000000000000000000000000000000000000000000000000000000000000000000000000000000000000 10.47592272942656429649162765979594663243806739103462545482386498331286512502141749126978974047259226,0.5000000000000000000000000000000000000000000000000000000000000000000000000000000000000000000000000000 10.13390258610089556344752804511368705167498402352046482635881648562815036131933989170559955813406671,1.439692620785908384054109277324731469936208134264464633090286662774221210995889458949745889837948067 9.491114976414356237124884635206423618767424139314783036033839230957037525078381251995111330416472359,2.205737063904886419256501927880148143872040591344859878944331947416376599852764182477975166518496561 8.625089572629917590361161464453487435296021512409592722005935741231071016623981233454538237037848071,2.705737063904886419256501927880148143872040591344859878944331947416376599852764182477975166518496561 7.640281819617709530994418439863964421625378260689750303215909988875243416680944994179859826981728172,2.879385241571816768108218554649462939872416268528929266180573325548442421991778917899491779675896135 6.655474066605501471627675415274441407954735008969907884425884236519415816737908754905181416925608273,2.705737063904886419256501927880148143872040591344859878944331947416376599852764182477975166518496561 5.789448662821062824863952244521505224483332382064717570397980746793449308283508736364608323546983985,2.205737063904886419256501927880148143872040591344859878944331947416376599852764182477975166518496561 5.146661053134523498541308834614241791575772497859035780073003492122336472042550096654120095829389634,1.439692620785908384054109277324731469936208134264464633090286662774221210995889458949745889837948067 4.804640909808854765497209219931982210812689130344875151607954994437621708340472497089929913490864086,0.5000000000000000000000000000000000000000000000000000000000000000000000000000000000000000000000000000" />
<polygon class="no_fill_black_stroke" points="5.789448662821062824863952244521505224483332382064717570397980746793449308283508736364608323546983985,-2.205737063904886419256501927880148143872040591344859878944331947416376599852764182477975166518496561 5.146661053134523498541308834614241791575772497859035780073003492122336472042550096654120095829389634,-1.439692620785908384054109277324731469936208134264464633090286662774221210995889458949745889837948067 3.638319544633255747227797705670626360596118389867737540986388326661932511383363766027036650045389650,-2.705341424258704317583394151432133169331193546265452078240166877221642385554337020539697210213891346 4.281107154319795073550441115577889793503678274073419331311365581333045347624322405737524877762984002,-3.471385867377682352785786801987549843267026003345847324094212161863797774411211744067926486894439839" />
</svg>
