<?xml version="1.0" encoding="utf-8"?>
<svg xmlns="http://www.w3.org/2000/svg" version="1.1" viewBox="-3.9978770563625754 -3.9978770563625754 15.6915082254503 8.99575411272515">
<style>.no_fill_black_stroke {fill:none; stroke:#000000; stroke-width:0.01;}</style>
<polygon class="no_fill_black_stroke" points="3.797877056362575220263209570210730918739212304921999414832589642346812936414111051235696577094765192,0.5000000000000000000000000000000000000000000000000000000000000000000000000000000000000000000000000000 3.539058011260054457914310732586682590390143403602068901018586435031755961665309054313328602400515526,1.465925826289068286749743199728897367633904839008404550402343076310423213979855516347561741858070452 3.039058011260054457914310732586682590390143403602068901018586435031755961665309054313328602400515526,2.331951230073506933513466370481833551105307465913594864430246566036389722434255534888134835236694740 2.331951230073506933513466370481833551105307465913594864430246566036389722434255534888134835236694740,3.039058011260054457914310732586682590390143403602068901018586435031755961665309054313328602400515526 1.465925826289068286749743199728897367633904839008404550402343076310423213979855516347561741858070452,3.539058011260054457914310732586682590390143403602068901018586435031755961665309054313328602400515526 0.5000000000000000000000000000000000000000000000000000000000000000000000000000000000000000000000000000,3.797877056362575220263209570210730918739212304921999414832589642346812936414111051235696577094765192 -0.5000000000000000000000000000000000000000000000000000000000000000000000000000000000000000000000000000,3.797877056362575220263209570210730918739212304921999414832589642346812936414111051235696577094765192 -1.465925826289068286749743199728897367633904839008404550402343076310423213979855516347561741858070452,3.539058011260054457914310732586682590390143403602068901018586435031755961665309054313328602400515526 -2.331951230073506933513466370481833551105307465913594864430246566036389722434255534888134835236694740,3.039058011260054457914310732586682590390143403602068901018586435031755961665309054313328602400515526 -3.039058011260054457914310732586682590390143403602068901018586435031755961665309054313328602400515526,2.331951230073506933513466370481833551105307465913594864430246566036389722434255534888134835236694740 -3.539058011260054457914310732586682590390143403602068901018586435031755961665309054313328602400515526,1.465925826289068286749743199728897367633904839008404550402343076310423213979855516347561741858070452 -3.797877056362575220263209570210730918739212304921999414832589642346812936414111051235696577094765192,0.5000000000000000000000000000000000000000000000000000000000000000000000000000000000000000000000000000 -3.797877056362575220263209570210730918739212304921999414832589642346812936414111051235696577094765192,-0.5000000000000000000000000000000000000000000000000000000000000000000000000000000000000000000000000000 -3.539058011260054457914310732586682590390143403602068901018586435031755961665309054313328602400515526,-1.465925826289068286749743199728897367633904839008404550402343076310423213979855516347561741858070452 -3.039058011260054457914310732586682590390143403602068901018586435031755961665309054313328602400515526,-2.331951230073506933513466370481833551105307465913594864430246566036389722434255534888134835236694740 -2.331951230073506933513466370481833551105307465913594864430246566036389722434255534888134835236694740,-3.039058011260054457914310732586682590390143403602068901018586435031755961665309054313328602400515526 -1.465925826289068286749743199728897367633904839008404550402343076310423213979855516347561741858070452,-3.539058011260054457914310732586682590390143403602068901018586435031755961665309054313328602400515526 -0.5000000000000000000000000000000000000000000000000000000000000000000000000000000000000000000000000000,-3.797877056362575220263209570210730918739212304921999414832589642346812936414111051235696577094765192 0.5000000000000000000000000000000000000000000000000000000000000000000000000000000000000000000000000000,-3.797877056362575220263209570210730918739212304921999414832589642346812936414111051235696577094765192 1.465925826289068286749743199728897367633904839008404550402343076310423213979855516347561741858070452,-3.539058011260054457914310732586682590390143403602068901018586435031755961665309054313328602400515526 2.331951230073506933513466370481833551105307465913594864430246566036389722434255534888134835236694740,-3.039058011260054457914310732586682590390143403602068901018586435031755961665309054313328602400515526 3.039058011260054457914310732586682590390143403602068901018586435031755961665309054313328602400515526,-2.331951230073506933513466370481833551105307465913594864430246566036389722434255534888134835236694740 3.539058011260054457914310732586682590390143403602068901018586435031755961665309054313328602400515526,-1.465925826289068286749743199728897367633904839008404550402343076310423213979855516347561741858070452 3.797877056362575220263209570210730918739212304921999414832589642346812936414111051235696577094765192,-0.5000000000000000000000000000000000000000000000000000000000000000000000000000000000000000000000000000" />
<polygon class="no_fill_black_stroke" points="3.797877056362575220263209570210730918739212304921999414832589642346812936414111051235696577094765192,-0.5000000000000000000000000000000000000000000000000000000000000000000000000000000000000000000000000000 3.897877056362575225814324693336513620857370645376100977332589642346812936414111051235696577094765192,-0.5000000000000000000000000000000000000000000000000000000000000000000000000000000000000000000000000000 3.897877056362575225814324693336513620857370645376100977332589642346812936414111051235696577094765192,1.500000000000000000000000000000000000000000000000000000000000000000000000000000000000000000000000000 3.797877056362575220263209570210730918739212304921999414832589642346812936414111051235696577094765192,1.500000000000000000000000000000000000000000000000000000000000000000000000000000000000000000000000000" />
<polygon class="no_fill_black_stroke" points="3.897877056362575225814324693336513620857370645376100977332589642346812936414111051235696577094765192,0.5000000000000000000000000000000000000000000000000000000000000000000000000000000000000000000000000000 4.156696101465095988163223530960561949206439546696031491146592849661869911162913048158064551789014857,-0.4659258262890682867497431997288973676339048390084045504023430763104232139798555163475617418580704519 4.656696101465095988163223530960561949206439546696031491146592849661869911162913048158064551789014857,-1.331951230073506933513466370481833551105307465913594864430246566036389722434255534888134835236694740 5.363802882651643512564067893065410988491275484384505527734932718657236150393966567583258318952835643,-2.039058011260054457914310732586682590390143403602068901018586435031755961665309054313328602400515526 6.229828286436082159327791063818347171962678111289695841762836208383202658848366586123831412331459931,-2.539058011260054457914310732586682590390143403602068901018586435031755961665309054313328602400515526 7.195754112725150446077534263547244539596582950298100392165179284693625872828222102471393154189530383,-2.797877056362575220263209570210730918739212304921999414832589642346812936414111051235696577094765192 8.195754112725150446077534263547244539596582950298100392165179284693625872828222102471393154189530383,-2.797877056362575220263209570210730918739212304921999414832589642346812936414111051235696577094765192 9.161679939014218732827277463276141907230487789306504942567522361004049086808077618818954896047600835,-2.539058011260054457914310732586682590390143403602068901018586435031755961665309054313328602400515526 10.02770534279865737959100063402907809070189041621169525659542585073001559526247763735952798942622512,-2.039058011260054457914310732586682590390143403602068901018586435031755961665309054313328602400515526 10.73481212398520490399184499613392712998672635390016929318376571972538183449353115678472175659004591,-1.331951230073506933513466370481833551105307465913594864430246566036389722434255534888134835236694740 11.23481212398520490399184499613392712998672635390016929318376571972538183449353115678472175659004591,-0.4659258262890682867497431997288973676339048390084045504023430763104232139798555163475617418580704519 11.49363116908772566634074383375797545833579525522009980699776892704043880924233315370708973128429557,0.5000000000000000000000000000000000000000000000000000000000000000000000000000000000000000000000000000 11.49363116908772566634074383375797545833579525522009980699776892704043880924233315370708973128429557,1.500000000000000000000000000000000000000000000000000000000000000000000000000000000000000000000000000 11.23481212398520490399184499613392712998672635390016929318376571972538183449353115678472175659004591,2.465925826289068286749743199728897367633904839008404550402343076310423213979855516347561741858070452 10.73481212398520490399184499613392712998672635390016929318376571972538183449353115678472175659004591,3.331951230073506933513466370481833551105307465913594864430246566036389722434255534888134835236694740 10.02770534279865737959100063402907809070189041621169525659542585073001559526247763735952798942622512,4.039058011260054457914310732586682590390143403602068901018586435031755961665309054313328602400515526 9.161679939014218732827277463276141907230487789306504942567522361004049086808077618818954896047600835,4.539058011260054457914310732586682590390143403602068901018586435031755961665309054313328602400515526 8.195754112725150446077534263547244539596582950298100392165179284693625872828222102471393154189530383,4.797877056362575220263209570210730918739212304921999414832589642346812936414111051235696577094765192 7.195754112725150446077534263547244539596582950298100392165179284693625872828222102471393154189530383,4.797877056362575220263209570210730918739212304921999414832589642346812936414111051235696577094765192 6.229828286436082159327791063818347171962678111289695841762836208383202658848366586123831412331459931,4.539058011260054457914310732586682590390143403602068901018586435031755961665309054313328602400515526 5.363802882651643512564067893065410988491275484384505527734932718657236150393966567583258318952835643,4.039058011260054457914310732586682590390143403602068901018586435031755961665309054313328602400515526 4.656696101465095988163223530960561949206439546696031491146592849661869911162913048158064551789014857,3.331951230073506933513466370481833551105307465913594864430246566036389722434255534888134835236694740 4.156696101465095988163223530960561949206439546696031491146592849661869911162913048158064551789014857,2.465925826289068286749743199728897367633904839008404550402343076310423213979855516347561741858070452 3.897877056362575225814324693336513620857370645376100977332589642346812936414111051235696577094765192,1.500000000000000000000000000000000000000000000000000000000000000000000000000000000000000000000000000" />
<polygon class="no_fill_black_stroke" points="6.229828286436082159327791063818347171962678111289695841762836208383202658848366586123831412331459931,4.539058011260054457914310732586682590390143403602068901018586435031755961665309054313328602400515526 2.765726671298327572272898380806602438077067603668934585651222249479336625030766511961539038816962780,2.539058011260054457914310732586682590390143403602068901018586435031755961665309054313328602400515526 2.715726671298327569497340819243711087017988433441883804401222249479336625030766511961539038816962780,2.625660551638498327398089765620886028244018210290150410497349136586777763767474891736239158777933812 6.179828286436082156552233502255455820903598941062645060512836208383202658848366586123831412331459931,4.625660551638498327398089765620886028244018210290150410497349136586777763767474891736239158777933812" />
</svg>
