<?xml version="1.0" encoding="utf-8"?>
<svg xmlns="http://www.w3.org/2000/svg" version="1.1" viewBox="-3.9978770563625754 -3.9978770563625754 9.358255411182272 7.995754112725151">
<style>.no_fill_black_stroke {fill:none; stroke:#000000; stroke-width:0.01;}</style>
<polygon class="no_fill_black_stroke" points="3.797877056362575220263209570210730918739212304921999414832589642346812936414111051235696577094765192,0.5000000000000000000000000000000000000000000000000000000000000000000000000000000000000000000000000000 3.539058011260054457914310732586682590390143403602068901018586435031755961665309054313328602400515526,1.465925826289068286749743199728897367633904839008404550402343076310423213979855516347561741858070452 3.039058011260054457914310732586682590390143403602068901018586435031755961665309054313328602400515526,2.331951230073506933513466370481833551105307465913594864430246566036389722434255534888134835236694740 2.331951230073506933513466370481833551105307465913594864430246566036389722434255534888134835236694740,3.039058011260054457914310732586682590390143403602068901018586435031755961665309054313328602400515526 1.465925826289068286749743199728897367633904839008404550402343076310423213979855516347561741858070452,3.539058011260054457914310732586682590390143403602068901018586435031755961665309054313328602400515526 0.5000000000000000000000000000000000000000000000000000000000000000000000000000000000000000000000000000,3.797877056362575220263209570210730918739212304921999414832589642346812936414111051235696577094765192 -0.5000000000000000000000000000000000000000000000000000000000000000000000000000000000000000000000000000,3.797877056362575220263209570210730918739212304921999414832589642346812936414111051235696577094765192 -1.465925826289068286749743199728897367633904839008404550402343076310423213979855516347561741858070452,3.539058011260054457914310732586682590390143403602068901018586435031755961665309054313328602400515526 -2.331951230073506933513466370481833551105307465913594864430246566036389722434255534888134835236694740,3.039058011260054457914310732586682590390143403602068901018586435031755961665309054313328602400515526 -3.039058011260054457914310732586682590390143403602068901018586435031755961665309054313328602400515526,2.331951230073506933513466370481833551105307465913594864430246566036389722434255534888134835236694740 -3.539058011260054457914310732586682590390143403602068901018586435031755961665309054313328602400515526,1.465925826289068286749743199728897367633904839008404550402343076310423213979855516347561741858070452 -3.797877056362575220263209570210730918739212304921999414832589642346812936414111051235696577094765192,0.5000000000000000000000000000000000000000000000000000000000000000000000000000000000000000000000000000 -3.797877056362575220263209570210730918739212304921999414832589642346812936414111051235696577094765192,-0.5000000000000000000000000000000000000000000000000000000000000000000000000000000000000000000000000000 -3.539058011260054457914310732586682590390143403602068901018586435031755961665309054313328602400515526,-1.465925826289068286749743199728897367633904839008404550402343076310423213979855516347561741858070452 -3.039058011260054457914310732586682590390143403602068901018586435031755961665309054313328602400515526,-2.331951230073506933513466370481833551105307465913594864430246566036389722434255534888134835236694740 -2.331951230073506933513466370481833551105307465913594864430246566036389722434255534888134835236694740,-3.039058011260054457914310732586682590390143403602068901018586435031755961665309054313328602400515526 -1.465925826289068286749743199728897367633904839008404550402343076310423213979855516347561741858070452,-3.539058011260054457914310732586682590390143403602068901018586435031755961665309054313328602400515526 -0.5000000000000000000000000000000000000000000000000000000000000000000000000000000000000000000000000000,-3.797877056362575220263209570210730918739212304921999414832589642346812936414111051235696577094765192 0.5000000000000000000000000000000000000000000000000000000000000000000000000000000000000000000000000000,-3.797877056362575220263209570210730918739212304921999414832589642346812936414111051235696577094765192 1.465925826289068286749743199728897367633904839008404550402343076310423213979855516347561741858070452,-3.539058011260054457914310732586682590390143403602068901018586435031755961665309054313328602400515526 2.331951230073506933513466370481833551105307465913594864430246566036389722434255534888134835236694740,-3.039058011260054457914310732586682590390143403602068901018586435031755961665309054313328602400515526 3.039058011260054457914310732586682590390143403602068901018586435031755961665309054313328602400515526,-2.331951230073506933513466370481833551105307465913594864430246566036389722434255534888134835236694740 3.539058011260054457914310732586682590390143403602068901018586435031755961665309054313328602400515526,-1.465925826289068286749743199728897367633904839008404550402343076310423213979855516347561741858070452 3.797877056362575220263209570210730918739212304921999414832589642346812936414111051235696577094765192,-0.5000000000000000000000000000000000000000000000000000000000000000000000000000000000000000000000000000" />
<polygon class="no_fill_black_stroke" points="3.797877056362575220263209570210730918739212304921999414832589642346812936414111051235696577094765192,-0.5000000000000000000000000000000000000000000000000000000000000000000000000000000000000000000000000000 4.797877056362575220263209570210730918739212304921999414832589642346812936414111051235696577094765192,-0.5000000000000000000000000000000000000000000000000000000000000000000000000000000000000000000000000000 4.797877056362575220263209570210730918739212304921999414832589642346812936414111051235696577094765192,2.500000000000000000000000000000000000000000000000000000000000000000000000000000000000000000000000000 3.797877056362575220263209570210730918739212304921999414832589642346812936414111051235696577094765192,2.500000000000000000000000000000000000000000000000000000000000000000000000000000000000000000000000000" />
<polygon class="no_fill_black_stroke" points="2.331951230073506933513466370481833551105307465913594864430246566036389722434255534888134835236694740,-3.039058011260054457914310732586682590390143403602068901018586435031755961665309054313328602400515526 4.453271573633149506715999456796380668959815278979016974195266173022488440127416093163716136728157099,-0.9177376677004118847117776462721354725356355905366467912535668280456572439721484960377473009090531670 5.160378354819697031116843818901229708244651216667491010783606042017854679358469612588909903891977885,-1.624844448886959409112622008376984511820471528225120827841906697041023483203202015462941068072873953 3.039058011260054457914310732586682590390143403602068901018586435031755961665309054313328602400515526,-3.746164792446601982315155094691531629674979341290542937606926304027122200896362573738522369564336312" />
</svg>
