<?xml version="1.0" encoding="utf-8"?>
<svg xmlns="http://www.w3.org/2000/svg" version="1.1" viewBox="-3.9978770563625754 -3.9978770563625754 16.5915082254503 7.995754112725151">
<style>.no_fill_black_stroke {fill:none; stroke:#000000; stroke-width:0.01;}</style>
<polygon class="no_fill_black_stroke" points="3.797877056362575220263209570210730918739212304921999414832589642346812936414111051235696577094765192,0.5000000000000000000000000000000000000000000000000000000000000000000000000000000000000000000000000000 3.539058011260054457914310732586682590390143403602068901018586435031755961665309054313328602400515526,1.465925826289068286749743199728897367633904839008404550402343076310423213979855516347561741858070452 3.039058011260054457914310732586682590390143403602068901018586435031755961665309054313328602400515526,2.331951230073506933513466370481833551105307465913594864430246566036389722434255534888134835236694740 2.331951230073506933513466370481833551105307465913594864430246566036389722434255534888134835236694740,3.039058011260054457914310732586682590390143403602068901018586435031755961665309054313328602400515526 1.465925826289068286749743199728897367633904839008404550402343076310423213979855516347561741858070452,3.539058011260054457914310732586682590390143403602068901018586435031755961665309054313328602400515526 0.5000000000000000000000000000000000000000000000000000000000000000000000000000000000000000000000000000,3.797877056362575220263209570210730918739212304921999414832589642346812936414111051235696577094765192 -0.5000000000000000000000000000000000000000000000000000000000000000000000000000000000000000000000000000,3.797877056362575220263209570210730918739212304921999414832589642346812936414111051235696577094765192 -1.465925826289068286749743199728897367633904839008404550402343076310423213979855516347561741858070452,3.539058011260054457914310732586682590390143403602068901018586435031755961665309054313328602400515526 -2.331951230073506933513466370481833551105307465913594864430246566036389722434255534888134835236694740,3.039058011260054457914310732586682590390143403602068901018586435031755961665309054313328602400515526 -3.039058011260054457914310732586682590390143403602068901018586435031755961665309054313328602400515526,2.331951230073506933513466370481833551105307465913594864430246566036389722434255534888134835236694740 -3.539058011260054457914310732586682590390143403602068901018586435031755961665309054313328602400515526,1.465925826289068286749743199728897367633904839008404550402343076310423213979855516347561741858070452 -3.797877056362575220263209570210730918739212304921999414832589642346812936414111051235696577094765192,0.5000000000000000000000000000000000000000000000000000000000000000000000000000000000000000000000000000 -3.797877056362575220263209570210730918739212304921999414832589642346812936414111051235696577094765192,-0.5000000000000000000000000000000000000000000000000000000000000000000000000000000000000000000000000000 -3.539058011260054457914310732586682590390143403602068901018586435031755961665309054313328602400515526,-1.465925826289068286749743199728897367633904839008404550402343076310423213979855516347561741858070452 -3.039058011260054457914310732586682590390143403602068901018586435031755961665309054313328602400515526,-2.331951230073506933513466370481833551105307465913594864430246566036389722434255534888134835236694740 -2.331951230073506933513466370481833551105307465913594864430246566036389722434255534888134835236694740,-3.039058011260054457914310732586682590390143403602068901018586435031755961665309054313328602400515526 -1.465925826289068286749743199728897367633904839008404550402343076310423213979855516347561741858070452,-3.539058011260054457914310732586682590390143403602068901018586435031755961665309054313328602400515526 -0.5000000000000000000000000000000000000000000000000000000000000000000000000000000000000000000000000000,-3.797877056362575220263209570210730918739212304921999414832589642346812936414111051235696577094765192 0.5000000000000000000000000000000000000000000000000000000000000000000000000000000000000000000000000000,-3.797877056362575220263209570210730918739212304921999414832589642346812936414111051235696577094765192 1.465925826289068286749743199728897367633904839008404550402343076310423213979855516347561741858070452,-3.539058011260054457914310732586682590390143403602068901018586435031755961665309054313328602400515526 2.331951230073506933513466370481833551105307465913594864430246566036389722434255534888134835236694740,-3.039058011260054457914310732586682590390143403602068901018586435031755961665309054313328602400515526 3.039058011260054457914310732586682590390143403602068901018586435031755961665309054313328602400515526,-2.331951230073506933513466370481833551105307465913594864430246566036389722434255534888134835236694740 3.539058011260054457914310732586682590390143403602068901018586435031755961665309054313328602400515526,-1.465925826289068286749743199728897367633904839008404550402343076310423213979855516347561741858070452 3.797877056362575220263209570210730918739212304921999414832589642346812936414111051235696577094765192,-0.5000000000000000000000000000000000000000000000000000000000000000000000000000000000000000000000000000" />
<polygon class="no_fill_black_stroke" points="3.797877056362575220263209570210730918739212304921999414832589642346812936414111051235696577094765192,-0.5000000000000000000000000000000000000000000000000000000000000000000000000000000000000000000000000000 4.797877056362575220263209570210730918739212304921999414832589642346812936414111051235696577094765192,-0.5000000000000000000000000000000000000000000000000000000000000000000000000000000000000000000000000000 4.797877056362575220263209570210730918739212304921999414832589642346812936414111051235696577094765192,0.5000000000000000000000000000000000000000000000000000000000000000000000000000000000000000000000000000 3.797877056362575220263209570210730918739212304921999414832589642346812936414111051235696577094765192,0.5000000000000000000000000000000000000000000000000000000000000000000000000000000000000000000000000000" />
<polygon class="no_fill_black_stroke" points="4.797877056362575220263209570210730918739212304921999414832589642346812936414111051235696577094765192,-0.5000000000000000000000000000000000000000000000000000000000000000000000000000000000000000000000000000 5.056696101465095982612108407834779247088281206241929928646592849661869911162913048158064551789014857,-1.465925826289068286749743199728897367633904839008404550402343076310423213979855516347561741858070452 5.556696101465095982612108407834779247088281206241929928646592849661869911162913048158064551789014857,-2.331951230073506933513466370481833551105307465913594864430246566036389722434255534888134835236694740 6.263802882651643507012952769939628286373117143930403965234932718657236150393966567583258318952835643,-3.039058011260054457914310732586682590390143403602068901018586435031755961665309054313328602400515526 7.129828286436082153776675940692564469844519770835594279262836208383202658848366586123831412331459931,-3.539058011260054457914310732586682590390143403602068901018586435031755961665309054313328602400515526 8.095754112725150440526419140421461837478424609843998829665179284693625872828222102471393154189530383,-3.797877056362575220263209570210730918739212304921999414832589642346812936414111051235696577094765192 9.095754112725150440526419140421461837478424609843998829665179284693625872828222102471393154189530383,-3.797877056362575220263209570210730918739212304921999414832589642346812936414111051235696577094765192 10.06167993901421872727616234015035920511232944885240338006752236100404908680807761881895489604760084,-3.539058011260054457914310732586682590390143403602068901018586435031755961665309054313328602400515526 10.92770534279865737403988551090329538858373207575759369409542585073001559526247763735952798942622512,-3.039058011260054457914310732586682590390143403602068901018586435031755961665309054313328602400515526 11.63481212398520489844072987300814442786856801344606773068376571972538183449353115678472175659004591,-2.331951230073506933513466370481833551105307465913594864430246566036389722434255534888134835236694740 12.13481212398520489844072987300814442786856801344606773068376571972538183449353115678472175659004591,-1.465925826289068286749743199728897367633904839008404550402343076310423213979855516347561741858070452 12.39363116908772566078962871063219275621763691476599824449776892704043880924233315370708973128429557,-0.5000000000000000000000000000000000000000000000000000000000000000000000000000000000000000000000000000 12.39363116908772566078962871063219275621763691476599824449776892704043880924233315370708973128429557,0.5000000000000000000000000000000000000000000000000000000000000000000000000000000000000000000000000000 12.13481212398520489844072987300814442786856801344606773068376571972538183449353115678472175659004591,1.465925826289068286749743199728897367633904839008404550402343076310423213979855516347561741858070452 11.63481212398520489844072987300814442786856801344606773068376571972538183449353115678472175659004591,2.331951230073506933513466370481833551105307465913594864430246566036389722434255534888134835236694740 10.92770534279865737403988551090329538858373207575759369409542585073001559526247763735952798942622512,3.039058011260054457914310732586682590390143403602068901018586435031755961665309054313328602400515526 10.06167993901421872727616234015035920511232944885240338006752236100404908680807761881895489604760084,3.539058011260054457914310732586682590390143403602068901018586435031755961665309054313328602400515526 9.095754112725150440526419140421461837478424609843998829665179284693625872828222102471393154189530383,3.797877056362575220263209570210730918739212304921999414832589642346812936414111051235696577094765192 8.095754112725150440526419140421461837478424609843998829665179284693625872828222102471393154189530383,3.797877056362575220263209570210730918739212304921999414832589642346812936414111051235696577094765192 7.129828286436082153776675940692564469844519770835594279262836208383202658848366586123831412331459931,3.539058011260054457914310732586682590390143403602068901018586435031755961665309054313328602400515526 6.263802882651643507012952769939628286373117143930403965234932718657236150393966567583258318952835643,3.039058011260054457914310732586682590390143403602068901018586435031755961665309054313328602400515526 5.556696101465095982612108407834779247088281206241929928646592849661869911162913048158064551789014857,2.331951230073506933513466370481833551105307465913594864430246566036389722434255534888134835236694740 5.056696101465095982612108407834779247088281206241929928646592849661869911162913048158064551789014857,1.465925826289068286749743199728897367633904839008404550402343076310423213979855516347561741858070452 4.797877056362575220263209570210730918739212304921999414832589642346812936414111051235696577094765192,0.5000000000000000000000000000000000000000000000000000000000000000000000000000000000000000000000000000" />
<polygon class="no_fill_black_stroke" points="5.556696101465095982612108407834779247088281206241929928646592849661869911162913048158064551789014857,-2.331951230073506933513466370481833551105307465913594864430246566036389722434255534888134835236694740 4.556696101465095982612108407834779247088281206241929928646592849661869911162913048158064551789014857,-0.5999004225046296399860200289759611841625022121032142363744395865844567055254554978069886484794461641 3.690670697680657335848385237081843063616878579336739614618689359935903402708513029617491458410390569,-1.099900422504629639986020028975961184162502212103214236374439586584456705525455497806988648479446164 4.690670697680657335848385237081843063616878579336739614618689359935903402708513029617491458410390569,-2.831951230073506933513466370481833551105307465913594864430246566036389722434255534888134835236694740" />
</svg>
